EEM.sfdir
StartChar: exclam
Encoding: 33 33 4
Width: 458
VWidth: 1754
Flags: W
LayerCount: 2
Fore
SplineSet
314 716 m 1,0,-1
 266 277 l 1,1,-1
 181 277 l 1,2,-1
 140 713 l 1,3,-1
 140 1000 l 1,4,-1
 314 1000 l 1,5,-1
 314 716 l 1,0,-1
318 74 m 0,6,7
 318 36 318 36 293 9.5 c 128,-1,8
 268 -17 268 -17 230 -17 c 0,9,10
 191 -17 191 -17 165.5 9.5 c 128,-1,11
 140 36 140 36 140 74 c 0,12,13
 140 113 140 113 165.5 138.5 c 128,-1,14
 191 164 191 164 230 164 c 0,15,16
 268 164 268 164 293 138.5 c 128,-1,17
 318 113 318 113 318 74 c 0,6,7
EndSplineSet
EndChar
StartChar: quotedbl
Encoding: 34 34 5
Width: 785
VWidth: 1754
Flags: W
LayerCount: 2
Fore
SplineSet
645 1000 m 1,0,-1
 616 600 l 1,1,-1
 483 600 l 1,2,-1
 452 1000 l 1,3,-1
 645 1000 l 1,0,-1
332 1000 m 1,4,-1
 301 600 l 1,5,-1
 171 600 l 1,6,-1
 140 1000 l 1,7,-1
 332 1000 l 1,4,-1
EndSplineSet
EndChar
StartChar: numbersign
Encoding: 35 35 6
Width: 984
VWidth: 1754
Flags: W
LayerCount: 2
Fore
SplineSet
923 730 m 1,0,-1
 901 586 l 1,1,-1
 747 586 l 1,2,-1
 723 432 l 1,3,-1
 880 432 l 1,4,-1
 860 288 l 1,5,-1
 702 288 l 1,6,-1
 656 0 l 1,7,-1
 488 0 l 1,8,-1
 536 288 l 1,9,-1
 379 288 l 1,10,-1
 334 0 l 1,11,-1
 171 0 l 1,12,-1
 218 288 l 1,13,-1
 60 288 l 1,14,-1
 81 432 l 1,15,-1
 238 432 l 1,16,-1
 264 586 l 1,17,-1
 108 586 l 1,18,-1
 130 730 l 1,19,-1
 284 730 l 1,20,-1
 325 1000 l 1,21,-1
 488 1000 l 1,22,-1
 445 730 l 1,23,-1
 606 730 l 1,24,-1
 649 1000 l 1,25,-1
 810 1000 l 1,26,-1
 769 730 l 1,27,-1
 923 730 l 1,0,-1
582 586 m 1,28,-1
 425 586 l 1,29,-1
 404 432 l 1,30,-1
 562 432 l 1,31,-1
 582 586 l 1,28,-1
EndSplineSet
EndChar
StartChar: dollar
Encoding: 36 36 7
Width: 1027
VWidth: 1754
Flags: W
LayerCount: 2
Fore
SplineSet
917 291 m 0,0,1
 917 140 917 140 777 57 c 0,2,3
 691 7 691 7 595 -3 c 1,4,-1
 595 -178 l 1,5,-1
 415 -178 l 1,6,-1
 415 0 l 1,7,8
 242 29 242 29 110 182 c 1,9,-1
 254 295 l 1,10,11
 360 168 360 168 521 168 c 0,12,13
 615 168 615 168 677 205.5 c 128,-1,14
 739 243 739 243 739 298 c 0,15,16
 739 358 739 358 675 389 c 1,17,18
 603 418 603 418 556 428 c 1,19,-1
 509 442 l 1,20,-1
 465 452 l 1,21,-1
 415 466 l 1,22,23
 275 499 275 499 218 565 c 1,24,25
 156 632 156 632 156 733 c 0,26,27
 156 837 156 837 226.5 910 c 128,-1,28
 297 983 297 983 415 1004 c 1,29,-1
 415 1158 l 1,30,-1
 595 1158 l 1,31,-1
 595 1004 l 1,32,33
 749 978 749 978 871 856 c 1,34,-1
 739 737 l 1,35,36
 647 835 647 835 499 834 c 0,37,38
 424 834 424 834 381 807.5 c 128,-1,39
 338 781 338 781 338 733 c 0,40,41
 338 690 338 690 370.5 668 c 128,-1,42
 403 646 403 646 496 625 c 0,43,44
 671 589 671 589 773 540 c 1,45,46
 840 506 840 506 878.5 439 c 128,-1,47
 917 372 917 372 917 291 c 0,0,1
EndSplineSet
EndChar
StartChar: quotesingle
Encoding: 39 39 9
Width: 262
VWidth: 1754
Flags: W
LayerCount: 2
Fore
SplineSet
224 886 m 0,0,1
 224 787 224 787 147 719 c 1,2,-1
 91 749 l 1,3,4
 130 788 130 788 140 822 c 1,5,-1
 130 822 l 2,6,7
 91 822 91 822 65 846 c 128,-1,8
 39 870 39 870 39 906 c 0,9,10
 39 947 39 947 63 975.5 c 128,-1,11
 87 1004 87 1004 123 1004 c 0,12,13
 169 1004 169 1004 196.5 972.5 c 128,-1,14
 224 941 224 941 224 886 c 0,0,1
EndSplineSet
EndChar
StartChar: parenleft
Encoding: 40 40 10
Width: 469
VWidth: 1754
Flags: W
LayerCount: 2
Fore
SplineSet
432 0 m 1,0,-1
 252 0 l 1,1,2
 98 154 98 154 98 502 c 0,3,4
 98 838 98 838 252 1000 c 1,5,-1
 432 1000 l 1,6,7
 281 767 281 767 281 502 c 0,8,9
 281 230 281 230 432 0 c 1,0,-1
EndSplineSet
EndChar
StartChar: parenright
Encoding: 41 41 11
Width: 469
VWidth: 1754
Flags: W
LayerCount: 2
Fore
SplineSet
372 502 m 0,0,1
 372 154 372 154 218 0 c 1,2,-1
 39 0 l 1,3,4
 193 235 193 235 194 502 c 0,5,6
 194 759 194 759 43 1000 c 1,7,-1
 218 1000 l 1,8,9
 372 838 372 838 372 502 c 0,0,1
EndSplineSet
EndChar
StartChar: asterisk
Encoding: 42 42 12
Width: 708
VWidth: 1754
Flags: W
LayerCount: 2
Fore
SplineSet
628 740 m 1,0,1
 534 713 534 713 487 706 c 1,2,3
 501 697 501 697 514 685 c 128,-1,4
 527 673 527 673 534.5 663 c 128,-1,5
 542 653 542 653 556.5 633 c 128,-1,6
 571 613 571 613 581 600 c 1,7,-1
 448 502 l 2,8,9
 448 500 448 500 430 522.5 c 128,-1,10
 412 545 412 545 390.5 575 c 128,-1,11
 369 605 369 605 360 620 c 1,12,13
 353 605 353 605 329.5 575.5 c 128,-1,14
 306 546 306 546 287 524 c 2,15,-1
 266 502 l 1,16,-1
 129 596 l 1,17,18
 186 678 186 678 220 706 c 1,19,20
 193 709 193 709 80 743 c 1,21,-1
 126 898 l 1,22,23
 138 895 138 895 174.5 887 c 128,-1,24
 211 879 211 879 234.5 871 c 128,-1,25
 258 863 258 863 276 853 c 1,26,27
 269 872 269 872 266.5 891.5 c 128,-1,28
 264 911 264 911 264 923 c 128,-1,29
 264 935 264 935 265 961 c 128,-1,30
 266 987 266 987 266 1000 c 1,31,-1
 448 1000 l 1,32,33
 447 899 447 899 437 850 c 1,34,35
 449 859 449 859 465.5 864.5 c 128,-1,36
 482 870 482 870 495.5 873.5 c 128,-1,37
 509 877 509 877 536.5 883 c 128,-1,38
 564 889 564 889 581 894 c 1,39,-1
 628 740 l 1,0,1
EndSplineSet
EndChar
StartChar: plus
Encoding: 43 43 13
Width: 709
VWidth: 1754
Flags: W
LayerCount: 2
Fore
SplineSet
679 421 m 1,0,-1
 444 421 l 1,1,-1
 444 194 l 1,2,-1
 266 194 l 1,3,-1
 266 421 l 1,4,-1
 30 421 l 1,5,-1
 30 600 l 1,6,-1
 266 600 l 1,7,-1
 266 824 l 1,8,-1
 444 824 l 1,9,-1
 444 600 l 1,10,-1
 679 600 l 1,11,-1
 679 421 l 1,0,-1
EndSplineSet
EndChar
StartChar: comma
Encoding: 44 44 14
Width: 262
VWidth: 1754
Flags: W
LayerCount: 2
Fore
SplineSet
224 46 m 0,0,1
 224 -53 224 -53 147 -120 c 1,2,-1
 91 -91 l 1,3,4
 130 -52 130 -52 140 -17 c 1,5,-1
 130 -17 l 2,6,7
 91 -17 91 -17 65 7 c 128,-1,8
 39 31 39 31 39 67 c 0,9,10
 39 108 39 108 63 136 c 128,-1,11
 87 164 87 164 123 164 c 0,12,13
 169 164 169 164 196.5 132.5 c 128,-1,14
 224 101 224 101 224 46 c 0,0,1
EndSplineSet
EndChar
StartChar: hyphen
Encoding: 45 45 15
AltUni2: 0000ad.ffffffff.0
Width: 412
VWidth: 1754
Flags: W
LayerCount: 2
Fore
SplineSet
382 404 m 1,0,-1
 31 404 l 1,1,-1
 31 582 l 1,2,-1
 382 582 l 1,3,-1
 382 404 l 1,0,-1
EndSplineSet
EndChar
StartChar: slash
Encoding: 47 47 17
Width: 762
VWidth: 1754
Flags: W
LayerCount: 2
Fore
SplineSet
762 1004 m 1,0,-1
 178 0 l 1,1,-1
 0 0 l 1,2,-1
 584 1004 l 1,3,-1
 762 1004 l 1,0,-1
EndSplineSet
Substitution2: "'frac' Diagonal Fractions in Latin lookup 1 subtable" fraction
EndChar
StartChar: zero
Encoding: 48 48 18
Width: 1038
VWidth: 1754
Flags: W
LayerCount: 2
Fore
SplineSet
938 505 m 0,0,1
 938 404 938 404 915 314 c 128,-1,2
 892 224 892 224 844 148 c 128,-1,3
 796 72 796 72 712.5 27.5 c 128,-1,4
 629 -17 629 -17 522 -17 c 0,5,6
 313 -17 313 -17 206.5 133.5 c 128,-1,7
 100 284 100 284 100 502 c 0,8,9
 100 718 100 718 207 867.5 c 128,-1,10
 314 1017 314 1017 521.5 1017 c 128,-1,11
 729 1017 729 1017 833.5 866.5 c 128,-1,12
 938 716 938 716 938 505 c 0,0,1
760 505 m 2,13,-1
 760 502 l 2,14,15
 760 660 760 660 697.5 749 c 128,-1,16
 635 838 635 838 522 838 c 0,17,18
 400 838 400 838 339 736.5 c 128,-1,19
 278 635 278 635 278 505 c 0,20,21
 278 341 278 341 342.5 251 c 128,-1,22
 407 161 407 161 522 161 c 0,23,24
 632 161 632 161 696 255 c 128,-1,25
 760 349 760 349 760 505 c 2,13,-1
EndSplineSet
Substitution2: "'sinf' Scientific Inferiors in Latin lookup 0 subtable" uni2080
EndChar
StartChar: one
Encoding: 49 49 19
Width: 561
VWidth: 1754
Flags: W
LayerCount: 2
Fore
SplineSet
421 0 m 1,0,-1
 250 0 l 1,1,-1
 250 747 l 1,2,-1
 123 747 l 1,3,-1
 120 891 l 1,4,5
 226 915 226 915 279 1000 c 1,6,-1
 421 1000 l 1,7,-1
 421 0 l 1,0,-1
EndSplineSet
Substitution2: "'sinf' Scientific Inferiors in Latin lookup 0 subtable" uni2081
EndChar
StartChar: two
Encoding: 50 50 20
Width: 1027
VWidth: 1754
Flags: W
LayerCount: 2
Fore
SplineSet
917 0 m 1,0,-1
 110 0 l 1,1,2
 110 166 110 166 191 305 c 0,3,4
 318 519 318 519 586 593 c 0,5,6
 670 615 670 615 704.5 644 c 128,-1,7
 739 673 739 673 739 719 c 0,8,9
 739 834 739 834 542 834 c 0,10,11
 352 834 352 834 234 726 c 1,12,-1
 110 863 l 1,13,14
 288 1017 288 1017 532 1017 c 0,15,16
 708 1017 708 1017 812.5 936 c 128,-1,17
 917 855 917 855 917 719 c 0,18,19
 917 587 917 587 816 502 c 1,20,21
 759 459 759 459 669 432 c 0,22,23
 566 401 566 401 523 381 c 128,-1,24
 480 361 480 361 436 322 c 0,25,26
 376 271 376 271 328 178 c 1,27,-1
 917 178 l 1,28,-1
 917 0 l 1,0,-1
EndSplineSet
Substitution2: "'sinf' Scientific Inferiors in Latin lookup 0 subtable" uni2082
EndChar
StartChar: three
Encoding: 51 51 21
Width: 957
VWidth: 1754
Flags: W
LayerCount: 2
Fore
SplineSet
857 312 m 0,0,1
 857 172 857 172 743 77.5 c 128,-1,2
 629 -17 629 -17 461 -17 c 0,3,4
 259 -17 259 -17 127 104 c 1,5,6
 91 135 91 135 50 187 c 1,7,-1
 194 295 l 1,8,9
 295 165 295 165 472 164 c 0,10,11
 564 164 564 164 621.5 203 c 128,-1,12
 679 242 679 242 679 305 c 0,13,14
 679 343 679 343 656.5 380.5 c 128,-1,15
 634 418 634 418 600 435 c 0,16,17
 559 456 559 456 502 456 c 2,18,-1
 453 456 l 1,19,-1
 453 635 l 1,20,-1
 496 635 l 2,21,22
 554 635 554 635 591.5 662.5 c 128,-1,23
 629 690 629 690 629 733 c 0,24,25
 629 778 629 778 579.5 808 c 128,-1,26
 530 838 530 838 453 838 c 0,27,28
 325 838 325 838 232 740 c 1,29,-1
 100 863 l 1,30,31
 249 1017 249 1017 465 1017 c 0,32,33
 616 1017 616 1017 713.5 937.5 c 128,-1,34
 811 858 811 858 811 737 c 0,35,36
 811 650 811 650 730 546 c 1,37,38
 804 481 804 481 830.5 431.5 c 128,-1,39
 857 382 857 382 857 312 c 0,0,1
EndSplineSet
Substitution2: "'sinf' Scientific Inferiors in Latin lookup 0 subtable" uni2083
EndChar
StartChar: four
Encoding: 52 52 22
Width: 1109
VWidth: 1754
Flags: W
LayerCount: 2
Fore
SplineSet
969 204 m 1,0,-1
 822 204 l 1,1,-1
 822 0 l 1,2,-1
 647 0 l 1,3,-1
 647 204 l 1,4,-1
 30 204 l 1,5,-1
 30 365 l 1,6,-1
 647 1000 l 1,7,-1
 822 1000 l 1,8,-1
 822 365 l 1,9,-1
 969 365 l 1,10,-1
 969 204 l 1,0,-1
647 365 m 1,11,-1
 647 764 l 1,12,-1
 258 365 l 1,13,-1
 647 365 l 1,11,-1
EndSplineSet
Substitution2: "'sinf' Scientific Inferiors in Latin lookup 0 subtable" uni2084
EndChar
StartChar: five
Encoding: 53 53 23
Width: 1027
VWidth: 1754
Flags: W
LayerCount: 2
Fore
SplineSet
917 344 m 0,0,1
 917 186 917 186 798 84.5 c 128,-1,2
 679 -17 679 -17 496 -17 c 0,3,4
 294 -17 294 -17 110 94 c 1,5,-1
 204 245 l 1,6,7
 336 164 336 164 496 164 c 0,8,9
 609 164 609 164 674 212 c 128,-1,10
 739 260 739 260 739 344 c 0,11,12
 739 431 739 431 675 481 c 0,13,14
 624 522 624 522 513 522 c 0,15,16
 422 522 422 522 321 485 c 1,17,-1
 141 529 l 1,18,-1
 174 1000 l 1,19,-1
 840 1000 l 1,20,-1
 836 824 l 1,21,-1
 341 824 l 1,22,-1
 331 680 l 1,23,24
 453 706 453 706 525 706 c 0,25,26
 695 706 695 706 806 603 c 128,-1,27
 917 500 917 500 917 344 c 0,0,1
EndSplineSet
Substitution2: "'sinf' Scientific Inferiors in Latin lookup 0 subtable" uni2085
EndChar
StartChar: six
Encoding: 54 54 24
Width: 1007
VWidth: 1754
Flags: W
LayerCount: 2
Fore
SplineSet
907 291 m 0,0,1
 907 157 907 157 800 70 c 128,-1,2
 693 -17 693 -17 525 -17 c 0,3,4
 342 -17 342 -17 218 91 c 0,5,6
 100 194 100 194 100 396 c 0,7,8
 100 554 100 554 167.5 685.5 c 128,-1,9
 235 817 235 817 362 904 c 0,10,11
 525 1017 525 1017 766 1017 c 1,12,-1
 766 838 l 1,13,-1
 749 838 l 2,14,15
 595 838 595 838 499 779 c 1,16,17
 376 707 376 707 307 562 c 1,18,19
 420 593 420 593 532 593 c 0,20,21
 695 593 695 593 801 508 c 128,-1,22
 907 423 907 423 907 291 c 0,0,1
727 288 m 0,23,24
 727 346 727 346 669.5 380.5 c 128,-1,25
 612 415 612 415 516 415 c 0,26,27
 424 415 424 415 367.5 380.5 c 128,-1,28
 311 346 311 346 311 291 c 0,29,30
 311 233 311 233 367.5 198.5 c 128,-1,31
 424 164 424 164 516 164 c 0,32,33
 610 164 610 164 668.5 198.5 c 128,-1,34
 727 233 727 233 727 288 c 0,23,24
EndSplineSet
Substitution2: "'sinf' Scientific Inferiors in Latin lookup 0 subtable" uni2086
EndChar
StartChar: seven
Encoding: 55 55 25
Width: 971
VWidth: 1754
Flags: W
LayerCount: 2
Fore
SplineSet
871 820 m 1,0,1
 782 736 782 736 761 702 c 1,2,3
 663 570 663 570 593 361 c 0,4,5
 542 203 542 203 537 0 c 1,6,-1
 358 0 l 1,7,8
 363 199 363 199 403 358 c 1,9,10
 454 548 454 548 547 699 c 0,11,12
 566 732 566 732 627 824 c 1,13,-1
 64 824 l 1,14,-1
 60 1000 l 1,15,-1
 871 1000 l 1,16,-1
 871 820 l 1,0,1
EndSplineSet
Substitution2: "'sinf' Scientific Inferiors in Latin lookup 0 subtable" uni2087
EndChar
StartChar: eight
Encoding: 56 56 26
Width: 1007
VWidth: 1754
Flags: W
LayerCount: 2
Fore
SplineSet
907 319 m 0,0,1
 907 151 907 151 790.5 67 c 128,-1,2
 674 -17 674 -17 503 -17 c 0,3,4
 320 -17 320 -17 210 74.5 c 128,-1,5
 100 166 100 166 100 319 c 0,6,7
 100 461 100 461 212 562 c 1,8,9
 166 617 166 617 148.5 654.5 c 128,-1,10
 131 692 131 692 131 743 c 0,11,12
 131 866 131 866 234 941.5 c 128,-1,13
 337 1017 337 1017 503 1017 c 0,14,15
 671 1017 671 1017 773.5 942 c 128,-1,16
 876 867 876 867 876 743 c 0,17,18
 876 693 876 693 860 655 c 128,-1,19
 844 617 844 617 799 562 c 1,20,21
 907 465 907 465 907 319 c 0,0,1
696 747 m 0,22,23
 696 790 696 790 645.5 814 c 128,-1,24
 595 838 595 838 502.5 838 c 128,-1,25
 410 838 410 838 360.5 814 c 128,-1,26
 311 790 311 790 311 747 c 0,27,28
 311 653 311 653 503 653 c 0,29,30
 696 653 696 653 696 747 c 0,22,23
729 319 m 0,31,32
 729 393 729 393 670 433 c 128,-1,33
 611 473 611 473 503 473 c 128,-1,34
 395 473 395 473 336.5 432.5 c 128,-1,35
 278 392 278 392 278 319 c 0,36,37
 278 237 278 237 352 194 c 1,38,39
 398 165 398 165 503 164 c 0,40,41
 628 164 628 164 676 207 c 0,42,43
 729 256 729 256 729 319 c 0,31,32
EndSplineSet
Substitution2: "'sinf' Scientific Inferiors in Latin lookup 0 subtable" uni2088
EndChar
StartChar: nine
Encoding: 57 57 27
Width: 1007
VWidth: 1754
Flags: W
LayerCount: 2
Fore
SplineSet
907 606 m 0,0,1
 907 447 907 447 839.5 314.5 c 128,-1,2
 772 182 772 182 643 94 c 1,3,4
 487 -17 487 -17 244 -17 c 1,5,-1
 244 164 l 1,6,-1
 261 164 l 2,7,8
 407 164 407 164 508 221 c 0,9,10
 577 260 577 260 619.5 310.5 c 128,-1,11
 662 361 662 361 700 442 c 1,12,13
 590 408 590 408 475 408 c 0,14,15
 312 408 312 408 206 494.5 c 128,-1,16
 100 581 100 581 100 713 c 0,17,18
 100 847 100 847 207 932 c 128,-1,19
 314 1017 314 1017 482 1017 c 0,20,21
 664 1017 664 1017 787 911 c 0,22,23
 907 806 907 806 907 606 c 0,0,1
696 712.5 m 128,-1,25
 696 767 696 767 639 802.5 c 128,-1,26
 582 838 582 838 489 838 c 0,27,28
 393 838 393 838 335.5 804.5 c 128,-1,29
 278 771 278 771 278 713 c 0,30,31
 278 656 278 656 337.5 621 c 128,-1,32
 397 586 397 586 492 586 c 0,33,34
 581 586 581 586 638.5 622 c 128,-1,24
 696 658 696 658 696 712.5 c 128,-1,25
EndSplineSet
Substitution2: "'sinf' Scientific Inferiors in Latin lookup 0 subtable" uni2089
EndChar
StartChar: colon
Encoding: 58 58 28
Width: 281
VWidth: 1754
Flags: W
LayerCount: 2
Fore
SplineSet
241 478 m 0,0,1
 241 439 241 439 211 409 c 128,-1,2
 181 379 181 379 138 379 c 0,3,4
 99 379 99 379 69.5 408.5 c 128,-1,5
 40 438 40 438 40 478 c 0,6,7
 40 521 40 521 69 550 c 128,-1,8
 98 579 98 579 138 579 c 0,9,10
 181 579 181 579 211 550 c 128,-1,11
 241 521 241 521 241 478 c 0,0,1
241 81 m 0,12,13
 241 42 241 42 211 12.5 c 128,-1,14
 181 -17 181 -17 138 -17 c 0,15,16
 99 -17 99 -17 69.5 12 c 128,-1,17
 40 41 40 41 40 81 c 0,18,19
 40 124 40 124 69 153 c 128,-1,20
 98 182 98 182 138 182 c 0,21,22
 181 182 181 182 211 153 c 128,-1,23
 241 124 241 124 241 81 c 0,12,13
EndSplineSet
EndChar
StartChar: equal
Encoding: 61 61 29
Width: 709
VWidth: 1754
Flags: W
LayerCount: 2
Fore
SplineSet
679 562 m 1,0,-1
 30 562 l 1,1,-1
 30 740 l 1,2,-1
 679 740 l 1,3,-1
 679 562 l 1,0,-1
679 274 m 1,4,-1
 30 274 l 1,5,-1
 30 452 l 1,6,-1
 679 452 l 1,7,-1
 679 274 l 1,4,-1
EndSplineSet
EndChar
StartChar: A
Encoding: 65 65 32
Width: 1101
VWidth: 1754
Flags: W
LayerCount: 2
Fore
SplineSet
1059 0 m 1,0,-1
 867 0 l 1,1,-1
 769 235 l 1,2,-1
 334 235 l 1,3,-1
 235 0 l 1,4,-1
 39 0 l 1,5,-1
 459 1000 l 1,6,-1
 642 1000 l 1,7,-1
 1059 0 l 1,0,-1
690 415 m 1,8,-1
 552 750 l 1,9,-1
 411 415 l 1,10,-1
 690 415 l 1,8,-1
EndSplineSet
EndChar
StartChar: B
Encoding: 66 66 33
Width: 1027
VWidth: 1754
Flags: W
LayerCount: 2
Fore
SplineSet
947 295 m 0,0,1
 947 220 947 220 906 150.5 c 128,-1,2
 865 81 865 81 796 43 c 0,3,4
 719 0 719 0 642 0 c 2,5,-1
 592 0 l 1,6,-1
 140 0 l 1,7,-1
 140 1000 l 1,8,-1
 606 1000 l 2,9,10
 709 1000 709 1000 779 964 c 1,11,12
 914 883 914 883 914 737 c 0,13,14
 914 612 914 612 817 529 c 1,15,16
 947 435 947 435 947 295 c 0,0,1
736 722.5 m 128,-1,18
 736 767 736 767 701 793.5 c 128,-1,19
 666 820 666 820 606 820 c 2,20,-1
 322 820 l 1,21,-1
 322 620 l 1,22,-1
 606 620 l 2,23,24
 664 620 664 620 700 649 c 128,-1,17
 736 678 736 678 736 722.5 c 128,-1,18
767 305 m 0,25,26
 767 363 767 363 721 402.5 c 128,-1,27
 675 442 675 442 606 442 c 2,28,-1
 322 442 l 1,29,-1
 322 178 l 1,30,-1
 606 178 l 2,31,32
 676 178 676 178 721.5 214 c 128,-1,33
 767 250 767 250 767 305 c 0,25,26
EndSplineSet
EndChar
StartChar: D
Encoding: 68 68 35
Width: 1040
VWidth: 1754
Flags: W
LayerCount: 2
Fore
SplineSet
940 502 m 0,0,1
 940 195 940 195 697 60 c 0,2,3
 591 0 591 0 462 0 c 2,4,-1
 140 0 l 1,5,-1
 140 1000 l 1,6,-1
 462 1000 l 2,7,8
 590 1000 590 1000 700 937 c 0,9,10
 940 802 940 802 940 502 c 0,0,1
760 502 m 0,11,12
 760 697 760 697 613 783 c 1,13,14
 541 821 541 821 462 820 c 2,15,-1
 322 820 l 1,16,-1
 322 178 l 1,17,-1
 462 178 l 2,18,19
 536 178 536 178 606 218 c 0,20,21
 760 302 760 302 760 502 c 0,11,12
EndSplineSet
EndChar
StartChar: E
Encoding: 69 69 36
Width: 957
VWidth: 1754
Flags: W
LayerCount: 2
Fore
SplineSet
887 0 m 1,0,-1
 140 0 l 1,1,-1
 140 1000 l 1,2,-1
 870 1000 l 1,3,-1
 870 820 l 1,4,-1
 322 820 l 1,5,-1
 322 635 l 1,6,-1
 620 635 l 1,7,-1
 620 452 l 1,8,-1
 322 452 l 1,9,-1
 322 178 l 1,10,-1
 887 178 l 1,11,-1
 887 0 l 1,0,-1
EndSplineSet
EndChar
StartChar: F
Encoding: 70 70 37
Width: 957
VWidth: 1754
Flags: W
LayerCount: 2
Fore
SplineSet
887 820 m 1,0,-1
 322 820 l 1,1,-1
 322 617 l 1,2,-1
 635 617 l 1,3,-1
 635 435 l 1,4,-1
 322 435 l 1,5,-1
 322 0 l 1,6,-1
 140 0 l 1,7,-1
 140 1000 l 1,8,-1
 887 1000 l 1,9,-1
 887 820 l 1,0,-1
EndSplineSet
EndChar
StartChar: G
Encoding: 71 71 38
Width: 1005
VWidth: 1754
Flags: W
LayerCount: 2
Fore
SplineSet
558 498 m 1,0,-1
 908 498 l 1,1,-1
 908 368 l 2,2,3
 908 205 908 205 793 94 c 128,-1,4
 678 -17 678 -17 512 -17 c 0,5,6
 372 -17 372 -17 275 60 c 128,-1,7
 178 137 178 137 138 251 c 128,-1,8
 98 365 98 365 98 502 c 0,9,10
 98 732 98 732 212.5 874.5 c 128,-1,11
 327 1017 327 1017 512 1017 c 0,12,13
 771 1017 771 1017 884 769 c 1,14,-1
 702 706 l 1,15,16
 640 838 640 838 512 838 c 0,17,18
 408 838 408 838 342.5 744.5 c 128,-1,19
 277 651 277 651 277 502 c 0,20,21
 277 411 277 411 295 340 c 128,-1,22
 313 269 313 269 369 215 c 128,-1,23
 425 161 425 161 512 161 c 0,24,25
 586 161 586 161 645 205.5 c 128,-1,26
 704 250 704 250 723 319 c 1,27,-1
 558 319 l 1,28,-1
 558 498 l 1,0,-1
EndSplineSet
EndChar
StartChar: H
Encoding: 72 72 39
Width: 1065
VWidth: 1754
Flags: W
LayerCount: 2
Fore
SplineSet
937 0 m 1,0,-1
 757 0 l 1,1,-1
 757 438 l 1,2,-1
 308 435 l 1,3,-1
 308 0 l 1,4,-1
 130 0 l 1,5,-1
 130 1000 l 1,6,-1
 308 1000 l 1,7,-1
 308 613 l 1,8,-1
 757 613 l 1,9,-1
 757 1000 l 1,10,-1
 937 1000 l 1,11,-1
 937 0 l 1,0,-1
EndSplineSet
EndChar
StartChar: I
Encoding: 73 73 40
Width: 458
VWidth: 1754
Flags: W
LayerCount: 2
Fore
SplineSet
318 0 m 1,0,-1
 140 0 l 1,1,-1
 140 1000 l 1,2,-1
 318 1000 l 1,3,-1
 318 0 l 1,0,-1
EndSplineSet
EndChar
StartChar: K
Encoding: 75 75 42
Width: 988
VWidth: 1754
Flags: W
LayerCount: 2
Fore
SplineSet
968 0 m 1,0,-1
 764 0 l 1,1,-1
 508 519 l 1,2,-1
 318 281 l 1,3,-1
 318 0 l 1,4,-1
 140 0 l 1,5,-1
 140 1000 l 1,6,-1
 318 1000 l 1,7,-1
 318 565 l 1,8,-1
 673 1000 l 1,9,-1
 904 1000 l 1,10,-1
 639 673 l 1,11,-1
 968 0 l 1,0,-1
EndSplineSet
EndChar
StartChar: L
Encoding: 76 76 43
Width: 907
VWidth: 1754
Flags: W
LayerCount: 2
Fore
SplineSet
887 0 m 1,0,-1
 140 0 l 1,1,-1
 140 1000 l 1,2,-1
 318 1000 l 1,3,-1
 318 154 l 1,4,-1
 887 154 l 1,5,-1
 887 0 l 1,0,-1
EndSplineSet
EndChar
StartChar: N
Encoding: 78 78 45
Width: 1087
VWidth: 1754
Flags: W
LayerCount: 2
Fore
SplineSet
947 0 m 1,0,-1
 793 0 l 1,1,-1
 315 687 l 1,2,-1
 315 0 l 1,3,-1
 140 0 l 1,4,-1
 140 1000 l 1,5,-1
 315 1000 l 1,6,-1
 774 341 l 1,7,-1
 774 1000 l 1,8,-1
 947 1000 l 1,9,-1
 947 0 l 1,0,-1
EndSplineSet
EndChar
StartChar: P
Encoding: 80 80 47
Width: 980
VWidth: 1754
Flags: W
LayerCount: 2
Fore
SplineSet
940 695 m 0,0,1
 940 616 940 616 898 543.5 c 128,-1,2
 856 471 856 471 786 432 c 0,3,4
 714 393 714 393 606 392 c 2,5,-1
 322 392 l 1,6,-1
 322 0 l 1,7,-1
 140 0 l 1,8,-1
 140 1000 l 1,9,-1
 606 1000 l 2,10,11
 707 1000 707 1000 786 958 c 1,12,13
 858 917 858 917 899 848 c 128,-1,14
 940 779 940 779 940 695 c 0,0,1
760 695 m 0,15,16
 760 752 760 752 720 786 c 128,-1,17
 680 820 680 820 613 820 c 2,18,-1
 322 820 l 1,19,-1
 322 572 l 1,20,-1
 613 572 l 2,21,22
 678 572 678 572 719 606 c 128,-1,23
 760 640 760 640 760 695 c 0,15,16
EndSplineSet
EndChar
StartChar: Q
Encoding: 81 81 48
Width: 1097
VWidth: 1754
Flags: W
LayerCount: 2
Fore
SplineSet
968 502 m 0,0,1
 968 243 968 243 834 104 c 1,2,-1
 887 24 l 1,3,-1
 754 -63 l 1,4,-1
 706 14 l 1,5,6
 627 -17 627 -17 546 -17 c 0,7,8
 359 -17 359 -17 244.5 126 c 128,-1,9
 130 269 130 269 130 502 c 0,10,11
 130 733 130 733 247.5 875 c 128,-1,12
 365 1017 365 1017 552 1017 c 0,13,14
 744 1017 744 1017 856 876 c 128,-1,15
 968 735 968 735 968 502 c 0,0,1
790 502 m 0,16,17
 790 661 790 661 728 749.5 c 128,-1,18
 666 838 666 838 552 838 c 0,19,20
 441 838 441 838 374.5 748 c 128,-1,21
 308 658 308 658 308 502 c 0,22,23
 308 343 308 343 371.5 253.5 c 128,-1,24
 435 164 435 164 546 164 c 0,25,26
 579 164 579 164 600 168 c 1,27,-1
 526 281 l 1,28,-1
 656 368 l 1,29,-1
 730 260 l 1,30,31
 790 353 790 353 790 502 c 0,16,17
EndSplineSet
EndChar
StartChar: R
Encoding: 82 82 49
Width: 1017
VWidth: 1754
Flags: W
LayerCount: 2
Fore
SplineSet
947 0 m 1,0,-1
 747 0 l 1,1,-1
 586 392 l 1,2,-1
 318 392 l 1,3,-1
 318 0 l 1,4,-1
 140 0 l 1,5,-1
 140 1000 l 1,6,-1
 599 1000 l 2,7,8
 697 1000 697 1000 771 958 c 0,9,10
 843 917 843 917 884.5 848 c 128,-1,11
 926 779 926 779 926 695.5 c 128,-1,12
 926 612 926 612 883.5 541.5 c 128,-1,13
 841 471 841 471 764 428 c 1,14,-1
 947 0 l 1,0,-1
747 695 m 0,15,16
 747 753 747 753 707.5 786.5 c 128,-1,17
 668 820 668 820 603 820 c 2,18,-1
 318 820 l 1,19,-1
 318 572 l 1,20,-1
 603 572 l 2,21,22
 668 572 668 572 707.5 606 c 128,-1,23
 747 640 747 640 747 695 c 0,15,16
EndSplineSet
EndChar
StartChar: S
Encoding: 83 83 50
Width: 1027
VWidth: 1754
Flags: W
LayerCount: 2
Fore
SplineSet
917 291 m 0,0,1
 917 140 917 140 777 57 c 0,2,3
 667 -10 667 -10 525 -10 c 0,4,5
 277 -10 277 -10 110 182 c 1,6,-1
 254 295 l 1,7,8
 360 168 360 168 521 168 c 0,9,10
 615 168 615 168 677 205.5 c 128,-1,11
 739 243 739 243 739 298 c 0,12,13
 739 358 739 358 675 389 c 1,14,15
 603 418 603 418 556 428 c 1,16,-1
 509 442 l 1,17,-1
 465 452 l 1,18,-1
 415 466 l 1,19,20
 275 499 275 499 218 565 c 1,21,22
 156 632 156 632 156 733 c 0,23,24
 156 856 156 856 251.5 933.5 c 128,-1,25
 347 1011 347 1011 499 1011 c 0,26,27
 722 1011 722 1011 871 856 c 1,28,-1
 739 737 l 1,29,30
 647 835 647 835 499 834 c 0,31,32
 424 834 424 834 381 807.5 c 128,-1,33
 338 781 338 781 338 733 c 0,34,35
 338 690 338 690 370.5 668 c 128,-1,36
 403 646 403 646 496 625 c 0,37,38
 671 589 671 589 773 540 c 1,39,40
 840 506 840 506 878.5 439 c 128,-1,41
 917 372 917 372 917 291 c 0,0,1
EndSplineSet
EndChar
StartChar: T
Encoding: 84 84 51
Width: 827
VWidth: 1754
Flags: W
LayerCount: 2
Fore
SplineSet
790 824 m 1,0,-1
 502 824 l 1,1,-1
 502 0 l 1,2,-1
 325 0 l 1,3,-1
 325 824 l 1,4,-1
 39 824 l 1,5,-1
 39 1000 l 1,6,-1
 790 1000 l 1,7,-1
 790 824 l 1,0,-1
EndSplineSet
EndChar
StartChar: U
Encoding: 85 85 52
Width: 1087
VWidth: 1754
Flags: W
LayerCount: 2
Fore
SplineSet
947 404 m 2,0,1
 947 221 947 221 833 102 c 128,-1,2
 719 -17 719 -17 542.5 -17 c 128,-1,3
 366 -17 366 -17 253 102 c 128,-1,4
 140 221 140 221 140 404 c 2,5,-1
 140 1000 l 1,6,-1
 318 1000 l 1,7,-1
 318 404 l 2,8,9
 318 327 318 327 351 274 c 0,10,11
 416 164 416 164 543 164 c 0,12,13
 603 164 603 164 655 194 c 128,-1,14
 707 224 707 224 736 274 c 0,15,16
 767 325 767 325 767 404 c 2,17,-1
 767 1000 l 1,18,-1
 947 1000 l 1,19,-1
 947 404 l 2,0,1
EndSplineSet
EndChar
StartChar: V
Encoding: 86 86 53
Width: 1008
VWidth: 1754
Flags: W
LayerCount: 2
Fore
SplineSet
971 1000 m 1,0,-1
 600 0 l 1,1,-1
 408 0 l 1,2,-1
 39 1000 l 1,3,-1
 231 1000 l 1,4,-1
 505 271 l 1,5,-1
 779 1000 l 1,6,-1
 971 1000 l 1,0,-1
EndSplineSet
EndChar
StartChar: W
Encoding: 87 87 54
Width: 1135
VWidth: 1754
Flags: W
LayerCount: 2
Fore
SplineSet
1098 1000 m 1,0,-1
 920 0 l 1,1,-1
 730 0 l 1,2,-1
 569 670 l 1,3,-1
 411 0 l 1,4,-1
 221 0 l 1,5,-1
 39 1000 l 1,6,-1
 224 1000 l 1,7,-1
 334 355 l 1,8,-1
 481 1000 l 1,9,-1
 659 1000 l 1,10,-1
 814 355 l 1,11,-1
 916 1000 l 1,12,-1
 1098 1000 l 1,0,-1
EndSplineSet
EndChar
StartChar: X
Encoding: 88 88 55
Width: 1007
VWidth: 1754
Flags: W
LayerCount: 2
Fore
SplineSet
937 0 m 1,0,-1
 726 0 l 1,1,-1
 502 355 l 1,2,-1
 281 0 l 1,3,-1
 70 0 l 1,4,-1
 396 526 l 1,5,-1
 98 1000 l 1,6,-1
 312 1000 l 1,7,-1
 502 695 l 1,8,-1
 690 1000 l 1,9,-1
 904 1000 l 1,10,-1
 610 526 l 1,11,-1
 937 0 l 1,0,-1
EndSplineSet
EndChar
StartChar: Y
Encoding: 89 89 56
Width: 1097
VWidth: 1754
Flags: W
LayerCount: 2
Fore
SplineSet
1059 1000 m 1,0,-1
 639 408 l 1,1,-1
 639 0 l 1,2,-1
 459 0 l 1,3,-1
 459 408 l 1,4,-1
 39 1000 l 1,5,-1
 260 1000 l 1,6,-1
 552 593 l 1,7,-1
 838 1000 l 1,8,-1
 1059 1000 l 1,0,-1
EndSplineSet
EndChar
StartChar: grave
Encoding: 96 96 124
Width: 404
VWidth: 1754
Flags: W
LayerCount: 2
Fore
SplineSet
276 822 m 1,0,-1
 151 822 l 1,1,-1
 0 1000 l 1,2,-1
 183 1000 l 1,3,-1
 276 822 l 1,0,-1
EndSplineSet
EndChar
StartChar: a
Encoding: 97 97 58
Width: 923
VWidth: 1754
Flags: W
LayerCount: 2
Fore
SplineSet
723 0 m 1,0,-1
 555 0 l 1,1,-1
 555 31 l 1,2,3
 498 -2 498 -2 423 -10.5 c 128,-1,4
 348 -19 348 -19 277.5 -2 c 128,-1,5
 207 15 207 15 158.5 78.5 c 128,-1,6
 110 142 110 142 110 242 c 0,7,8
 110 329 110 329 153.5 385.5 c 128,-1,9
 197 442 197 442 265.5 461.5 c 128,-1,10
 334 481 334 481 409.5 479.5 c 128,-1,11
 485 478 485 478 555 456 c 1,12,13
 548 521 548 521 508 551 c 128,-1,14
 468 581 468 581 414.5 575.5 c 128,-1,15
 361 570 361 570 315 555 c 128,-1,16
 269 540 269 540 238 519 c 1,17,-1
 164 673 l 1,18,19
 299 747 299 747 432 747 c 0,20,21
 723 747 723 747 723 442 c 2,22,-1
 723 0 l 1,0,-1
555 187 m 1,23,-1
 555 298 l 1,24,25
 459 337 459 337 395.5 333 c 128,-1,26
 332 329 332 329 301.5 303 c 128,-1,27
 271 277 271 277 271 242 c 0,28,29
 271 204 271 204 301 177.5 c 128,-1,30
 331 151 331 151 394 146.5 c 128,-1,31
 457 142 457 142 555 187 c 1,23,-1
EndSplineSet
EndChar
StartChar: b
Encoding: 98 98 59
Width: 763
VWidth: 1754
Flags: W
LayerCount: 2
Fore
SplineSet
706 361 m 0,0,1
 706 284 706 284 679.5 212 c 128,-1,2
 653 140 653 140 607.5 89 c 128,-1,3
 562 38 562 38 507 7 c 128,-1,4
 452 -24 452 -24 389.5 -19.5 c 128,-1,5
 327 -15 327 -15 271 27 c 1,6,-1
 271 0 l 1,7,-1
 91 0 l 1,8,-1
 91 951 l 1,9,-1
 271 1017 l 1,10,-1
 271 702 l 1,11,12
 389 767 389 767 485.5 730.5 c 128,-1,13
 582 694 582 694 644 588.5 c 128,-1,14
 706 483 706 483 706 361 c 0,0,1
526 365 m 0,15,16
 526 456 526 456 489 515 c 128,-1,17
 452 574 452 574 385 569 c 0,18,19
 347 567 347 567 313 541.5 c 128,-1,20
 279 516 279 516 271 492 c 1,21,-1
 271 238 l 1,22,23
 312 157 312 157 382 158 c 0,24,25
 447 158 447 158 486.5 217 c 128,-1,26
 526 276 526 276 526 365 c 0,15,16
EndSplineSet
EndChar
StartChar: c
Encoding: 99 99 60
Width: 837
VWidth: 1754
Flags: W
LayerCount: 2
Fore
SplineSet
727 120 m 1,0,1
 617 -17 617 -17 458 -17 c 0,2,3
 307 -17 307 -17 208.5 91 c 128,-1,4
 110 199 110 199 110 365 c 128,-1,5
 110 531 110 531 208.5 639 c 128,-1,6
 307 747 307 747 458 747 c 0,7,8
 617 747 617 747 727 610 c 1,9,-1
 615 462 l 1,10,11
 593 515 593 515 551 545.5 c 128,-1,12
 509 576 509 576 461 576 c 0,13,14
 382 576 382 576 331.5 516.5 c 128,-1,15
 281 457 281 457 281 364.5 c 128,-1,16
 281 272 281 272 331.5 213 c 128,-1,17
 382 154 382 154 461 154 c 0,18,19
 545 154 545 154 605 245 c 1,20,-1
 727 120 l 1,0,1
EndSplineSet
EndChar
StartChar: d
Encoding: 100 100 61
Width: 927
VWidth: 1754
Flags: W
LayerCount: 2
Fore
SplineSet
727 0 m 1,0,-1
 545 0 l 1,1,-1
 545 53 l 1,2,3
 499 12 499 12 473 1 c 128,-1,4
 447 -10 447 -10 401 -10 c 0,5,6
 283 -10 283 -10 196.5 100.5 c 128,-1,7
 110 211 110 211 110 361 c 0,8,9
 110 515 110 515 196.5 631 c 128,-1,10
 283 747 283 747 401 747 c 0,11,12
 447 747 447 747 473 736 c 128,-1,13
 499 725 499 725 545 683 c 1,14,-1
 545 951 l 1,15,-1
 727 1017 l 1,16,-1
 727 0 l 1,0,-1
545 238 m 1,17,-1
 545 492 l 1,18,19
 500 569 500 569 432 569 c 0,20,21
 369 569 369 569 327 510.5 c 128,-1,22
 285 452 285 452 285 364.5 c 128,-1,23
 285 277 285 277 327 217.5 c 128,-1,24
 369 158 369 158 432 158 c 0,25,26
 504 157 504 157 545 238 c 1,17,-1
EndSplineSet
EndChar
StartChar: e
Encoding: 101 101 62
Width: 840
VWidth: 1754
Flags: W
LayerCount: 2
Fore
SplineSet
730 308 m 1,0,-1
 285 308 l 1,1,2
 288 298 288 298 292 284 c 0,3,4
 304 222 304 222 342.5 184.5 c 128,-1,5
 381 147 381 147 429 147 c 0,6,7
 494 147 494 147 545 207 c 1,8,-1
 663 101 l 1,9,-1
 656 94 l 1,10,11
 567 -17 567 -17 429 -17 c 0,12,13
 295 -17 295 -17 202.5 93.5 c 128,-1,14
 110 204 110 204 110 365 c 0,15,16
 110 523 110 523 200 631.5 c 128,-1,17
 290 740 290 740 422 740 c 0,18,19
 557 740 557 740 643 629 c 1,20,21
 681 584 681 584 705.5 507 c 128,-1,22
 730 430 730 430 730 361 c 2,23,-1
 730 308 l 1,0,-1
555 449 m 1,24,25
 533 524 533 524 505.5 551.5 c 128,-1,26
 478 579 478 579 429 579 c 0,27,28
 326 579 326 579 295 449 c 1,29,-1
 555 449 l 1,24,25
EndSplineSet
EndChar
StartChar: f
Encoding: 102 102 63
Width: 438
VWidth: 1754
Flags: W
LayerCount: 2
Fore
SplineSet
418 555 m 1,0,-1
 308 555 l 1,1,-1
 308 0 l 1,2,-1
 134 0 l 1,3,-1
 134 555 l 1,4,-1
 39 555 l 1,5,-1
 39 726 l 1,6,-1
 134 726 l 1,7,-1
 134 817 l 2,8,9
 134 913 134 913 176.5 956.5 c 128,-1,10
 219 1000 219 1000 312 1000 c 0,11,12
 363 1000 363 1000 418 993 c 1,13,-1
 418 834 l 1,14,15
 391 837 391 837 365 838 c 0,16,17
 308 838 308 838 308 773 c 2,18,-1
 308 726 l 1,19,-1
 418 726 l 1,20,-1
 418 555 l 1,0,-1
EndSplineSet
EndChar
StartChar: g
Encoding: 103 103 64
Width: 930
VWidth: 1754
Flags: W
LayerCount: 2
Fore
SplineSet
730 7 m 2,0,1
 730 -77 730 -77 721.5 -119 c 128,-1,2
 713 -161 713 -161 685 -204 c 1,3,4
 651 -262 651 -262 600.5 -299.5 c 128,-1,5
 550 -337 550 -337 449 -379 c 2,6,-1
 432 -385 l 1,7,-1
 362 -228 l 1,8,9
 468 -173 468 -173 511.5 -124 c 128,-1,10
 555 -75 555 -75 555 -17 c 2,11,-1
 555 60 l 1,12,13
 516 19 516 19 483.5 1 c 128,-1,14
 451 -17 451 -17 398 -17 c 0,15,16
 280 -19 280 -19 195 93.5 c 128,-1,17
 110 206 110 206 110 361 c 0,18,19
 110 519 110 519 198 639 c 128,-1,20
 286 759 286 759 401 747 c 0,21,22
 456 742 456 742 478 730.5 c 128,-1,23
 500 719 500 719 555 677 c 1,24,-1
 555 730 l 1,25,-1
 730 730 l 1,26,-1
 730 7 l 2,0,1
555 231 m 1,27,-1
 555 492 l 1,28,29
 498 569 498 569 429 569 c 0,30,31
 367 569 367 569 327.5 510.5 c 128,-1,32
 288 452 288 452 288 361.5 c 128,-1,33
 288 271 288 271 327.5 212.5 c 128,-1,34
 367 154 367 154 429 154 c 0,35,36
 498 154 498 154 555 231 c 1,27,-1
EndSplineSet
EndChar
StartChar: h
Encoding: 104 104 65
Width: 1015
VWidth: 1754
Flags: W
LayerCount: 2
Fore
SplineSet
815 0 m 1,0,-1
 645 0 l 1,1,-1
 645 435 l 2,2,3
 645 490 645 490 606.5 529.5 c 128,-1,4
 568 569 568 569 513 569 c 128,-1,5
 458 569 458 569 419 535.5 c 128,-1,6
 380 502 380 502 380 428 c 2,7,-1
 380 0 l 1,8,-1
 200 0 l 1,9,-1
 200 951 l 1,10,-1
 380 1017 l 1,11,-1
 380 677 l 1,12,13
 435 747 435 747 547 747 c 0,14,15
 665 747 665 747 740 677.5 c 128,-1,16
 815 608 815 608 815 502 c 2,17,-1
 815 0 l 1,0,-1
EndSplineSet
EndChar
StartChar: i
Encoding: 105 105 66
Width: 583
VWidth: 1754
Flags: W
LayerCount: 2
Fore
SplineSet
383 930 m 0,0,1
 383 892 383 892 355.5 865 c 128,-1,2
 328 838 328 838 291 838 c 0,3,4
 252 838 252 838 226 864.5 c 128,-1,5
 200 891 200 891 200 930 c 0,6,7
 200 968 200 968 225.5 992.5 c 128,-1,8
 251 1017 251 1017 291 1017 c 0,9,10
 329 1017 329 1017 356 991.5 c 128,-1,11
 383 966 383 966 383 930 c 0,0,1
383 730 m 1,12,-1
 383 0 l 1,13,-1
 203 0 l 1,14,-1
 203 730 l 1,15,-1
 383 730 l 1,12,-1
EndSplineSet
EndChar
StartChar: j
Encoding: 106 106 67
Width: 525
VWidth: 1754
Flags: W
LayerCount: 2
Fore
SplineSet
321 930 m 128,-1,1
 321 892 321 892 294.5 865 c 128,-1,2
 268 838 268 838 231 838 c 0,3,4
 192 838 192 838 166 864.5 c 128,-1,5
 140 891 140 891 140 930 c 0,6,7
 140 968 140 968 166.5 992.5 c 128,-1,8
 193 1017 193 1017 230.5 1017 c 128,-1,9
 268 1017 268 1017 294.5 992.5 c 128,-1,0
 321 968 321 968 321 930 c 128,-1,1
325 24 m 2,10,11
 325 -86 325 -86 306 -143 c 128,-1,12
 287 -200 287 -200 238 -245 c 0,13,14
 163 -312 163 -312 20 -322 c 1,15,-1
 20 -161 l 1,16,17
 101 -156 101 -156 120.5 -119 c 128,-1,18
 140 -82 140 -82 140 24 c 2,19,-1
 140 730 l 1,20,-1
 325 730 l 1,21,-1
 325 24 l 2,10,11
EndSplineSet
EndChar
StartChar: k
Encoding: 107 107 68
Width: 909
VWidth: 1754
Flags: W
LayerCount: 2
Fore
SplineSet
799 0 m 1,0,-1
 621 0 l 1,1,-1
 477 348 l 1,2,-1
 380 214 l 1,3,-1
 380 0 l 1,4,-1
 200 0 l 1,5,-1
 200 951 l 1,6,-1
 380 1017 l 1,7,-1
 380 478 l 1,8,-1
 571 726 l 1,9,-1
 792 726 l 1,10,-1
 601 495 l 1,11,-1
 799 0 l 1,0,-1
EndSplineSet
EndChar
StartChar: l
Encoding: 108 108 69
Width: 580
VWidth: 1754
Flags: W
LayerCount: 2
Fore
SplineSet
380 0 m 1,0,-1
 200 0 l 1,1,-1
 200 944 l 1,2,-1
 380 1017 l 1,3,-1
 380 0 l 1,0,-1
EndSplineSet
EndChar
StartChar: m
Encoding: 109 109 70
Width: 1434
VWidth: 1754
Flags: W
LayerCount: 2
Fore
SplineSet
1234 0 m 1,0,-1
 1056 0 l 1,1,-1
 1056 435 l 2,2,3
 1056 495 1056 495 1022 532 c 128,-1,4
 988 569 988 569 929 569 c 0,5,6
 878 569 878 569 841 531 c 128,-1,7
 804 493 804 493 804 442 c 2,8,-1
 804 0 l 1,9,-1
 631 0 l 1,10,-1
 631 435 l 2,11,12
 631 492 631 492 592.5 530.5 c 128,-1,13
 554 569 554 569 498 569 c 0,14,15
 447 569 447 569 413.5 532 c 0,16,17
 380 494 380 494 380 438 c 2,18,-1
 380 0 l 1,19,-1
 200 0 l 1,20,-1
 200 730 l 1,21,-1
 380 730 l 1,22,-1
 380 670 l 1,23,24
 457 747 457 747 558 747 c 0,25,26
 671 747 671 747 748 659 c 1,27,28
 858 746 858 746 969 747 c 0,29,30
 1084 747 1084 747 1159 677.5 c 128,-1,31
 1234 608 1234 608 1234 502 c 2,32,-1
 1234 0 l 1,0,-1
EndSplineSet
EndChar
StartChar: n
Encoding: 110 110 71
Width: 1018
VWidth: 1754
Flags: W
LayerCount: 2
Fore
SplineSet
818 0 m 1,0,-1
 642 0 l 1,1,-1
 642 438 l 2,2,3
 642 498 642 498 605 537 c 128,-1,4
 568 576 568 576 508 576 c 0,5,6
 455 576 455 576 417.5 534.5 c 0,7,8
 380 492 380 492 380 438 c 2,9,-1
 380 0 l 1,10,-1
 200 0 l 1,11,-1
 200 730 l 1,12,-1
 380 730 l 1,13,-1
 380 670 l 1,14,15
 443 744 443 744 551 743 c 0,16,17
 669 743 669 743 743.5 677.5 c 128,-1,18
 818 612 818 612 818 509 c 2,19,-1
 818 0 l 1,0,-1
EndSplineSet
EndChar
StartChar: o
Encoding: 111 111 72
Width: 859
VWidth: 1754
Flags: W
LayerCount: 2
Fore
SplineSet
749 364.5 m 128,-1,1
 749 207 749 207 655.5 95 c 128,-1,2
 562 -17 562 -17 428.5 -17 c 128,-1,3
 295 -17 295 -17 202.5 94.5 c 128,-1,4
 110 206 110 206 110 365 c 128,-1,5
 110 524 110 524 202.5 635.5 c 128,-1,6
 295 747 295 747 428.5 747 c 128,-1,7
 562 747 562 747 655.5 634.5 c 128,-1,0
 749 522 749 522 749 364.5 c 128,-1,1
566 365 m 128,-1,9
 566 454 566 454 528 511.5 c 128,-1,10
 490 569 490 569 428.5 569 c 128,-1,11
 367 569 367 569 327.5 511.5 c 128,-1,12
 288 454 288 454 288 365 c 128,-1,13
 288 276 288 276 327.5 217 c 128,-1,14
 367 158 367 158 428.5 158 c 128,-1,15
 490 158 490 158 528 217 c 128,-1,8
 566 276 566 276 566 365 c 128,-1,9
EndSplineSet
EndChar
StartChar: p
Encoding: 112 112 73
Width: 932
VWidth: 1754
Flags: W
LayerCount: 2
Fore
SplineSet
822 364.5 m 128,-1,1
 822 212 822 212 733.5 99 c 128,-1,2
 645 -14 645 -14 527 -14 c 0,3,4
 481 -14 481 -14 456 -2 c 128,-1,5
 431 10 431 10 380 53 c 1,6,-1
 380 -231 l 1,7,-1
 200 -298 l 1,8,-1
 200 730 l 1,9,-1
 380 730 l 1,10,-1
 380 677 l 1,11,12
 425 716 425 716 452 728 c 128,-1,13
 479 740 479 740 527 740 c 0,14,15
 645 740 645 740 733.5 628.5 c 128,-1,0
 822 517 822 517 822 364.5 c 128,-1,1
645 364.5 m 128,-1,17
 645 452 645 452 601.5 512 c 128,-1,18
 558 572 558 572 494 572 c 0,19,20
 417 572 417 572 380 478 c 1,21,-1
 380 478 l 1,22,-1
 380 478 l 1,23,-1
 380 478 l 1,24,-1
 380 476 l 1,25,-1
 380 476 l 1,26,-1
 380 474 l 1,27,-1
 380 474 l 1,28,-1
 380 473 l 1,29,-1
 380 471 l 1,30,-1
 380 469 l 1,31,-1
 380 468 l 1,32,-1
 380 466 l 1,33,-1
 380 464 l 1,34,-1
 380 462 l 1,35,-1
 380 461 l 1,36,-1
 380 459 l 1,37,-1
 380 457 l 1,38,-1
 380 456 l 1,39,-1
 380 454 l 1,40,-1
 380 452 l 1,41,-1
 380 450 l 1,42,-1
 380 449 l 1,43,-1
 380 447 l 1,44,-1
 380 445 l 1,45,-1
 380 444 l 1,46,-1
 380 442 l 1,47,-1
 380 440 l 1,48,-1
 380 438 l 1,49,-1
 380 437 l 1,50,-1
 380 435 l 1,51,-1
 380 433 l 1,52,-1
 380 432 l 1,53,-1
 380 430 l 1,54,-1
 380 428 l 1,55,-1
 380 425 l 1,56,-1
 380 423 l 1,57,-1
 380 421 l 1,58,-1
 380 420 l 1,59,-1
 380 418 l 1,60,-1
 380 416 l 1,61,-1
 380 413 l 1,62,-1
 380 411 l 1,63,-1
 380 409 l 1,64,-1
 380 408 l 1,65,-1
 380 404 l 1,66,-1
 380 403 l 1,67,-1
 380 401 l 1,68,-1
 380 399 l 1,69,-1
 380 396 l 1,70,-1
 380 394 l 1,71,-1
 380 392 l 1,72,-1
 380 389 l 1,73,-1
 380 387 l 1,74,-1
 380 385 l 1,75,-1
 380 382 l 1,76,-1
 380 380 l 1,77,-1
 380 377 l 1,78,-1
 380 375 l 1,79,-1
 380 373 l 1,80,-1
 380 370 l 1,81,-1
 380 368 l 1,82,-1
 380 365 l 1,83,-1
 380 363 l 1,84,-1
 380 360 l 1,85,-1
 380 358 l 1,86,-1
 380 355 l 1,87,-1
 380 353 l 1,88,-1
 380 349 l 1,89,-1
 380 348 l 1,90,-1
 380 344 l 1,91,-1
 380 343 l 1,92,-1
 380 339 l 1,93,-1
 380 336 l 1,94,-1
 380 334 l 1,95,-1
 380 331 l 1,96,-1
 380 329 l 1,97,-1
 380 325 l 1,98,-1
 380 322 l 1,99,-1
 380 320 l 1,100,-1
 380 317 l 1,101,-1
 380 315 l 1,102,-1
 380 312 l 1,103,-1
 380 308 l 1,104,-1
 380 307 l 1,105,-1
 380 303 l 1,106,-1
 380 300 l 1,107,-1
 380 296 l 1,108,-1
 380 295 l 1,109,-1
 380 291 l 1,110,-1
 380 288 l 1,111,-1
 380 286 l 1,112,-1
 380 283 l 1,113,-1
 380 279 l 1,114,-1
 380 276 l 1,115,-1
 380 274 l 1,116,-1
 380 271 l 1,117,-1
 380 267 l 1,118,-1
 380 264 l 1,119,-1
 380 260 l 1,120,-1
 380 259 l 1,121,-1
 380 255 l 1,122,-1
 380 238 l 1,123,124
 411 192 411 192 434 175 c 128,-1,125
 457 158 457 158 494 158 c 0,126,127
 557 158 557 158 601 217.5 c 128,-1,16
 645 277 645 277 645 364.5 c 128,-1,17
EndSplineSet
EndChar
StartChar: q
Encoding: 113 113 74
Width: -32768
VWidth: 1754
Flags: W
LayerCount: 2
Fore
SplineSet
730 -235 m 1,0,-1
 559 -301 l 1,1,-1
 559 50 l 1,2,3
 509 7 509 7 481 -5 c 128,-1,4
 453 -17 453 -17 405 -17 c 0,5,6
 287 -17 287 -17 198.5 96 c 128,-1,7
 110 209 110 209 110 361.5 c 128,-1,8
 110 514 110 514 198 627 c 128,-1,9
 286 740 286 740 405 740 c 0,10,11
 453 740 453 740 482.5 728 c 128,-1,12
 512 716 512 716 559 677 c 1,13,-1
 559 730 l 1,14,-1
 730 730 l 1,15,-1
 730 -235 l 1,0,-1
559 235 m 1,16,-1
 559 492 l 1,17,18
 513 569 513 569 435 569 c 0,19,20
 372 569 372 569 328.5 509.5 c 128,-1,21
 285 450 285 450 285 361 c 0,22,23
 285 274 285 274 328.5 214 c 128,-1,24
 372 154 372 154 435 154 c 0,25,26
 513 154 513 154 559 235 c 1,16,-1
EndSplineSet
EndChar
StartChar: r
Encoding: 114 114 75
Width: 701
VWidth: 1754
Flags: W
LayerCount: 2
Fore
SplineSet
661 699 m 1,0,-1
 604 526 l 1,1,2
 566 569 566 569 508 569 c 0,3,4
 457 569 457 569 417 529 c 1,5,6
 379 500 379 500 380 428 c 2,7,-1
 380 0 l 1,8,-1
 200 0 l 1,9,-1
 200 730 l 1,10,-1
 380 730 l 1,11,-1
 380 677 l 1,12,13
 418 715 418 715 447 727.5 c 128,-1,14
 476 740 476 740 520 740 c 0,15,16
 604 740 604 740 661 699 c 1,0,-1
EndSplineSet
EndChar
StartChar: s
Encoding: 115 115 76
Width: 810
VWidth: 1754
Flags: W
LayerCount: 2
Fore
SplineSet
700 204 m 0,0,1
 700 101 700 101 622 43.5 c 128,-1,2
 544 -14 544 -14 402 -14 c 0,3,4
 222 -14 222 -14 90 53 c 1,5,-1
 155 211 l 1,6,7
 160 209 160 209 208.5 194.5 c 128,-1,8
 257 180 257 180 307.5 169 c 128,-1,9
 358 158 358 158 395 158 c 0,10,11
 523 158 523 158 524 211 c 0,12,13
 524 244 524 244 504 255.5 c 128,-1,14
 484 267 484 267 399 291 c 1,15,16
 252 329 252 329 188 379 c 0,17,18
 107 442 107 442 108 540 c 0,19,20
 108 634 108 634 185 688.5 c 128,-1,21
 262 743 262 743 392 743 c 0,22,23
 541 743 541 743 676 670 c 1,24,-1
 609 512 l 1,25,26
 508 572 508 572 395 572 c 0,27,28
 285 572 285 572 286 522 c 0,29,30
 286 496 286 496 310.5 482 c 128,-1,31
 335 468 335 468 412 452 c 0,32,33
 563 423 563 423 631.5 363 c 128,-1,34
 700 303 700 303 700 204 c 0,0,1
EndSplineSet
EndChar
StartChar: t
Encoding: 116 116 77
Width: 673
VWidth: 1754
Flags: W
LayerCount: 2
Fore
SplineSet
553 200 m 1,0,-1
 525 21 l 1,1,2
 453 -17 453 -17 392 -17 c 0,3,4
 306 -17 306 -17 258 43 c 128,-1,5
 210 103 210 103 210 207 c 2,6,-1
 210 558 l 1,7,-1
 90 558 l 1,8,-1
 90 726 l 1,9,-1
 210 726 l 1,10,-1
 210 951 l 1,11,-1
 392 1017 l 1,12,-1
 392 726 l 1,13,-1
 542 726 l 1,14,-1
 542 558 l 1,15,-1
 392 558 l 1,16,-1
 392 271 l 2,17,18
 392 161 392 161 472 161 c 0,19,20
 508 161 508 161 553 200 c 1,0,-1
EndSplineSet
EndChar
StartChar: u
Encoding: 117 117 78
Width: 1014
VWidth: 1754
Flags: W
LayerCount: 2
Fore
SplineSet
814 0 m 1,0,-1
 645 0 l 1,1,-1
 645 57 l 1,2,3
 576 12 576 12 548 1 c 128,-1,4
 520 -10 520 -10 467 -10 c 0,5,6
 349 -10 349 -10 274.5 56 c 128,-1,7
 200 122 200 122 200 224 c 2,8,-1
 200 726 l 1,9,-1
 379 726 l 1,10,-1
 379 291 l 2,11,12
 379 233 379 233 413.5 195.5 c 128,-1,13
 448 158 448 158 508 158 c 0,14,15
 563 158 563 158 604 197 c 128,-1,16
 645 236 645 236 645 288 c 2,17,-1
 645 726 l 1,18,-1
 814 726 l 1,19,-1
 814 0 l 1,0,-1
EndSplineSet
EndChar
StartChar: v
Encoding: 118 118 79
Width: 889
VWidth: 1754
Flags: W
LayerCount: 2
Fore
SplineSet
799 730 m 1,0,-1
 538 0 l 1,1,-1
 350 0 l 1,2,-1
 90 730 l 1,3,-1
 269 730 l 1,4,-1
 444 235 l 1,5,-1
 621 730 l 1,6,-1
 799 730 l 1,0,-1
EndSplineSet
EndChar
StartChar: w
Encoding: 119 119 80
Width: 1134
VWidth: 1754
Flags: W
LayerCount: 2
Fore
SplineSet
1044 730 m 1,0,-1
 842 0 l 1,1,-1
 669 0 l 1,2,-1
 567 442 l 1,3,-1
 465 0 l 1,4,-1
 293 0 l 1,5,-1
 90 730 l 1,6,-1
 266 730 l 1,7,-1
 377 315 l 1,8,-1
 473 730 l 1,9,-1
 662 730 l 1,10,-1
 759 319 l 1,11,-1
 869 730 l 1,12,-1
 1044 730 l 1,0,-1
EndSplineSet
EndChar
StartChar: x
Encoding: 120 120 81
Width: 950
VWidth: 1754
Flags: W
LayerCount: 2
Fore
SplineSet
840 0 m 1,0,-1
 639 0 l 1,1,-1
 475 252 l 1,2,-1
 314 0 l 1,3,-1
 110 0 l 1,4,-1
 377 411 l 1,5,-1
 170 730 l 1,6,-1
 374 730 l 1,7,-1
 475 569 l 1,8,-1
 579 730 l 1,9,-1
 780 730 l 1,10,-1
 576 411 l 1,11,-1
 840 0 l 1,0,-1
EndSplineSet
EndChar
StartChar: y
Encoding: 121 121 82
Width: 949
VWidth: 1754
Flags: W
LayerCount: 2
Fore
SplineSet
859 730 m 1,0,-1
 480 -277 l 1,1,-1
 297 -277 l 1,2,-1
 403 0 l 1,3,-1
 90 730 l 1,4,-1
 273 730 l 1,5,-1
 487 228 l 1,6,-1
 675 730 l 1,7,-1
 859 730 l 1,0,-1
EndSplineSet
EndChar
StartChar: z
Encoding: 122 122 83
Width: 693
VWidth: 1754
Flags: W
LayerCount: 2
Fore
SplineSet
666 0 m 1,0,-1
 31 0 l 1,1,-1
 31 158 l 1,2,-1
 399 555 l 1,3,-1
 50 555 l 1,4,-1
 50 730 l 1,5,-1
 666 730 l 1,6,-1
 666 586 l 1,7,-1
 277 171 l 1,8,-1
 666 171 l 1,9,-1
 666 0 l 1,0,-1
EndSplineSet
EndChar
StartChar: cent
Encoding: 162 162 84
Width: 897
VWidth: 1754
Flags: W
LayerCount: 2
Fore
SplineSet
827 288 m 1,0,1
 743 148 743 148 569 116 c 1,2,-1
 569 -60 l 1,3,-1
 389 -60 l 1,4,-1
 389 120 l 1,5,6
 252 149 252 149 175 258 c 128,-1,7
 98 367 98 367 98 529 c 0,8,9
 98 685 98 685 178.5 794.5 c 128,-1,10
 259 904 259 904 389 937 c 1,11,-1
 389 1084 l 1,12,-1
 569 1084 l 1,13,-1
 569 937 l 1,14,15
 739 911 739 911 827 769 c 1,16,-1
 687 699 l 1,17,18
 646 749 646 749 605 772.5 c 128,-1,19
 564 796 564 796 492 796 c 0,20,21
 388 796 388 796 331 713 c 128,-1,22
 274 630 274 630 274 529 c 0,23,24
 274 418 274 418 333 335 c 128,-1,25
 392 252 392 252 485 252 c 0,26,27
 535 252 535 252 572.5 267.5 c 128,-1,28
 610 283 610 283 627 297.5 c 128,-1,29
 644 312 644 312 687 355 c 1,30,-1
 827 288 l 1,0,1
EndSplineSet
EndChar
StartChar: dieresis
Encoding: 168 168 125
Width: 633
VWidth: 1754
Flags: W
LayerCount: 2
Fore
SplineSet
274 930 m 0,0,1
 274 892 274 892 246.5 865 c 128,-1,2
 219 838 219 838 182 838 c 0,3,4
 143 838 143 838 117 864.5 c 128,-1,5
 91 891 91 891 91 930 c 0,6,7
 91 968 91 968 116.5 992.5 c 128,-1,8
 142 1017 142 1017 182 1017 c 0,9,10
 220 1017 220 1017 247 991.5 c 128,-1,11
 274 966 274 966 274 930 c 0,0,1
543 930 m 0,12,13
 543 892 543 892 515.5 865 c 128,-1,14
 488 838 488 838 450 838 c 0,15,16
 411 838 411 838 385.5 864.5 c 128,-1,17
 360 891 360 891 360 930 c 0,18,19
 360 968 360 968 385.5 992.5 c 128,-1,20
 411 1017 411 1017 450 1017 c 0,21,22
 488 1017 488 1017 515.5 991.5 c 128,-1,23
 543 966 543 966 543 930 c 0,12,13
EndSplineSet
EndChar
StartChar: uni00B2
Encoding: 178 178 87
AltUni2: 002072.ffffffff.0
Width: 630
VWidth: 1754
Flags: W
LayerCount: 2
Fore
SplineSet
584 336 m 1,0,-1
 46 336 l 1,1,2
 46 447 46 447 99 540 c 1,3,4
 185 682 185 682 363 731 c 1,5,6
 420 745 420 745 443 765 c 128,-1,7
 466 785 466 785 466 815 c 0,8,9
 466 892 466 892 334 892 c 0,10,11
 207 892 207 892 128 820 c 1,12,-1
 46 911 l 1,13,14
 164 1014 164 1014 327 1014 c 0,15,16
 445 1014 445 1014 514.5 960 c 128,-1,17
 584 906 584 906 584 815 c 0,18,19
 584 728 584 728 517 670 c 1,20,21
 479 643 479 643 418 623 c 0,22,23
 349 602 349 602 321 589.5 c 128,-1,24
 293 577 293 577 264 550 c 1,25,26
 223 516 223 516 192 454 c 1,27,-1
 584 454 l 1,28,-1
 584 336 l 1,0,-1
EndSplineSet
EndChar
StartChar: uni00B3
Encoding: 179 179 88
AltUni2: 002073.ffffffff.0
Width: 630
VWidth: 1754
Flags: W
LayerCount: 2
Fore
SplineSet
584 538 m 0,0,1
 584 444 584 444 508 381.5 c 128,-1,2
 432 319 432 319 320 319 c 0,3,4
 185 319 185 319 98 399 c 0,5,6
 74 420 74 420 46 454 c 1,7,-1
 142 526 l 1,8,9
 209 440 209 440 327 440 c 0,10,11
 389 440 389 440 427.5 466 c 128,-1,12
 466 492 466 492 466 533 c 0,13,14
 466 559 466 559 450.5 583.5 c 128,-1,15
 435 608 435 608 413 620 c 0,16,17
 386 634 386 634 348 634 c 2,18,-1
 315 634 l 1,19,-1
 315 754 l 1,20,-1
 343 754 l 2,21,22
 382 754 382 754 407 772 c 128,-1,23
 432 790 432 790 432 819 c 256,24,25
 432 848 432 848 399.5 868.5 c 128,-1,26
 367 889 367 889 315 889 c 0,27,28
 229 889 229 889 168 824 c 1,29,-1
 79 906 l 1,30,31
 178 1009 178 1009 322 1009 c 0,32,33
 423 1009 423 1009 488 956 c 128,-1,34
 553 903 553 903 553 820 c 0,35,36
 553 762 553 762 500 694 c 1,37,38
 548 651 548 651 566 617.5 c 128,-1,39
 584 584 584 584 584 538 c 0,0,1
EndSplineSet
EndChar
StartChar: uni00B9
Encoding: 185 185 86
AltUni2: 002071.ffffffff.0
Width: 352
VWidth: 1754
Flags: W
LayerCount: 2
Fore
SplineSet
265 336 m 1,0,-1
 152 336 l 1,1,-1
 152 834 l 1,2,-1
 67 834 l 1,3,-1
 65 930 l 1,4,5
 135 945 135 945 171 1002 c 1,6,-1
 265 1002 l 1,7,-1
 265 336 l 1,0,-1
EndSplineSet
EndChar
StartChar: Ccedilla
Encoding: 199 199 132
Width: 1005
VWidth: 1754
Flags: W
LayerCount: 2
Fore
SplineSet
452 -12 m 1,0,1
 305 9 305 9 212 125 c 1,2,3
 97 265 97 265 98 502 c 0,4,5
 98 740 98 740 211.5 878.5 c 128,-1,6
 325 1017 325 1017 522 1017 c 0,7,8
 644 1017 644 1017 747.5 959 c 128,-1,9
 851 901 851 901 908 796 c 1,10,-1
 750 713 l 1,11,12
 717 763 717 763 680 786 c 1,13,14
 615 837 615 837 522 838 c 0,15,16
 436 838 436 838 380 784.5 c 128,-1,17
 324 731 324 731 302.5 660 c 128,-1,18
 281 589 281 589 281 505 c 0,19,20
 281 342 281 342 345 251.5 c 128,-1,21
 409 161 409 161 522 161 c 0,22,23
 589 161 589 161 636 187.5 c 128,-1,24
 683 214 683 214 750 288 c 1,25,-1
 908 204 l 1,26,27
 853 100 853 100 749.5 41.5 c 128,-1,28
 646 -17 646 -17 522 -17 c 2,29,-1
 519 -17 l 1,30,-1
 512 -39 l 1,31,32
 601 -8 601 -8 632 -67 c 0,33,34
 666 -130 666 -130 613 -188 c 0,35,36
 589 -215 589 -215 519 -216 c 0,37,38
 438 -214 438 -214 360 -173 c 1,39,-1
 384 -116 l 1,40,41
 434 -147 434 -147 490 -146 c 0,42,43
 529 -144 529 -144 540 -127 c 1,44,45
 550 -113 550 -113 536 -96 c 0,46,47
 519 -74 519 -74 478 -104 c 1,48,-1
 435 -74 l 1,49,-1
 452 -12 l 1,0,1
EndSplineSet
EndChar
StartChar: ccedilla
Encoding: 231 231 157
Width: 837
VWidth: 1754
Flags: W
LayerCount: 2
Fore
SplineSet
369 -7 m 1,0,1
 277 17 277 17 209 91 c 0,2,3
 110 199 110 199 110 365 c 128,-1,4
 110 531 110 531 208.5 639 c 128,-1,5
 307 747 307 747 458 747 c 0,6,7
 617 747 617 747 727 610 c 1,8,-1
 615 462 l 1,9,10
 593 515 593 515 551 545.5 c 128,-1,11
 509 576 509 576 461 576 c 0,12,13
 382 576 382 576 331.5 516.5 c 128,-1,14
 281 457 281 457 281 364.5 c 128,-1,15
 281 272 281 272 331.5 213 c 128,-1,16
 382 154 382 154 461 154 c 0,17,18
 545 154 545 154 605 245 c 1,19,-1
 727 120 l 1,20,21
 617 -17 617 -17 458 -17 c 2,22,-1
 434 -17 l 1,23,-1
 429 -39 l 1,24,25
 518 -8 518 -8 548 -67 c 0,26,27
 581 -130 581 -130 528 -188 c 0,28,29
 504 -215 504 -215 434 -216 c 0,30,31
 353 -214 353 -214 276 -173 c 1,32,-1
 300 -116 l 1,33,34
 350 -147 350 -147 406 -146 c 0,35,36
 445 -144 445 -144 456 -127 c 0,37,38
 465 -113 465 -113 451 -96 c 0,39,40
 434 -74 434 -74 393 -104 c 1,41,-1
 350 -74 l 1,42,-1
 369 -7 l 1,0,1
EndSplineSet
EndChar
StartChar: dotlessi
Encoding: 305 305 178
Width: 580
VWidth: 1754
Flags: W
LayerCount: 2
Fore
SplineSet
380 730 m 1,0,-1
 380 0 l 1,1,-1
 200 0 l 1,2,-1
 200 730 l 1,3,-1
 380 730 l 1,0,-1
EndSplineSet
EndChar
StartChar: tilde
Encoding: 732 732 180
Width: 669
VWidth: 1754
Flags: W
LayerCount: 2
Fore
SplineSet
106 846 m 1,0,1
 106 935 106 935 151 987 c 1,2,3
 190 1030 190 1030 245 1029 c 256,4,5
 300 1029 300 1029 348 999 c 256,6,7
 396 968 396 968 415 968 c 0,8,9
 448 968 448 968 452 1028 c 1,10,-1
 564 1028 l 1,11,12
 564 949 564 949 528 899 c 0,13,14
 489 842 489 842 420 843 c 0,15,16
 377 843 377 843 324 875 c 0,17,18
 271 906 271 906 257 906 c 0,19,20
 221 906 221 906 218 846 c 1,21,-1
 106 846 l 1,0,1
EndSplineSet
EndChar
StartChar: fraction
Encoding: 8260 8260 105
Width: 700
VWidth: 1754
Flags: W
LayerCount: 2
Fore
SplineSet
701 1002 m 1,0,-1
 118 0 l 1,1,-1
 0 0 l 1,2,-1
 582 1002 l 1,3,-1
 701 1002 l 1,0,-1
EndSplineSet
EndChar
StartChar: uni2074
Encoding: 8308 8308 89
Width: 715
VWidth: 1754
Flags: W
LayerCount: 2
Fore
SplineSet
651 471 m 1,0,-1
 553 471 l 1,1,-1
 553 336 l 1,2,-1
 437 336 l 1,3,-1
 437 471 l 1,4,-1
 26 471 l 1,5,-1
 26 579 l 1,6,-1
 437 1002 l 1,7,-1
 553 1002 l 1,8,-1
 553 579 l 1,9,-1
 651 579 l 1,10,-1
 651 471 l 1,0,-1
437 579 m 1,11,-1
 437 844 l 1,12,-1
 178 579 l 1,13,-1
 437 579 l 1,11,-1
EndSplineSet
EndChar
StartChar: uni2077
Encoding: 8311 8311 92
Width: 628
VWidth: 1754
Flags: W
LayerCount: 2
Fore
SplineSet
565 882 m 1,0,1
 507 827 507 827 493 803 c 1,2,3
 428 716 428 716 380 577 c 1,4,5
 346 471 346 471 343 336 c 1,6,-1
 224 336 l 1,7,8
 227 468 227 468 254 574 c 1,9,10
 288 701 288 701 349 802 c 0,11,12
 363 824 363 824 404 886 c 1,13,-1
 27 886 l 1,14,-1
 26 1002 l 1,15,-1
 565 1002 l 1,16,-1
 565 882 l 1,0,1
EndSplineSet
EndChar
StartChar: uni2085
Encoding: 8325 8325 100
Width: 630
VWidth: 1754
Flags: W
LayerCount: 2
Fore
SplineSet
584 224 m 0,0,1
 584 118 584 118 504.5 50.5 c 128,-1,2
 425 -17 425 -17 303 -17 c 0,3,4
 168 -17 168 -17 46 57 c 1,5,-1
 110 158 l 1,6,7
 197 105 197 105 303 104 c 0,8,9
 378 104 378 104 422 136 c 128,-1,10
 466 168 466 168 466 224 c 0,11,12
 466 282 466 282 423 315 c 0,13,14
 389 342 389 342 315 343 c 0,15,16
 253 343 253 343 187 317 c 1,17,-1
 67 348 l 1,18,-1
 89 661 l 1,19,-1
 533 661 l 1,20,-1
 531 543 l 1,21,-1
 200 543 l 1,22,-1
 194 447 l 1,23,24
 275 464 275 464 322 464 c 0,25,26
 435 464 435 464 509.5 395.5 c 128,-1,27
 584 327 584 327 584 224 c 0,0,1
EndSplineSet
EndChar
StartChar: uni2086
Encoding: 8326 8326 101
Width: 712
VWidth: 1754
Flags: W
LayerCount: 2
Fore
SplineSet
625 188 m 0,0,1
 625 99 625 99 554 41 c 128,-1,2
 483 -17 483 -17 370 -17 c 0,3,4
 248 -17 248 -17 166 55 c 0,5,6
 87 124 87 124 87 259 c 0,7,8
 87 363 87 363 132.5 451.5 c 128,-1,9
 178 540 178 540 262 598 c 0,10,11
 370 673 370 673 531 673 c 1,12,-1
 531 553 l 1,13,-1
 521 553 l 2,14,15
 418 553 418 553 353 514 c 0,16,17
 271 466 271 466 226 368 c 1,18,19
 301 389 301 389 375 389 c 0,20,21
 483 389 483 389 554 332 c 128,-1,22
 625 275 625 275 625 188 c 0,0,1
505 187 m 256,23,24
 505 225 505 225 466.5 248 c 128,-1,25
 428 271 428 271 365 271 c 0,26,27
 303 271 303 271 265.5 247.5 c 128,-1,28
 228 224 228 224 228 188 c 0,29,30
 228 149 228 149 265.5 126.5 c 128,-1,31
 303 104 303 104 365 104 c 0,32,33
 428 104 428 104 466.5 126.5 c 128,-1,34
 505 149 505 149 505 187 c 256,23,24
EndSplineSet
EndChar
